<?xml version="1.0" encoding="UTF-8" standalone="no"?>
<!-- Created with Inkscape (http://www.inkscape.org/) -->

<svg
   xmlns:dc="http://purl.org/dc/elements/1.1/"
   xmlns:cc="http://creativecommons.org/ns#"
   xmlns:rdf="http://www.w3.org/1999/02/22-rdf-syntax-ns#"
   xmlns:svg="http://www.w3.org/2000/svg"
   xmlns="http://www.w3.org/2000/svg"
   xmlns:sodipodi="http://sodipodi.sourceforge.net/DTD/sodipodi-0.dtd"
   xmlns:inkscape="http://www.inkscape.org/namespaces/inkscape"
   version="1.1"
   id="svg2"
   xml:space="preserve"
   width="1109.5601"
   height="619.54797"
   viewBox="0 0 1109.5601 619.54797"
   sodipodi:docname="eagle-silhouette-4892371.svg"
   inkscape:export-filename="/silo0/C++Libs/FLC/Logo/eagle-silhouette-1940*3475.png"
   inkscape:export-xdpi="300.65973"
   inkscape:export-ydpi="300.65973"
   inkscape:version="0.92.2 5c3e80d, 2017-08-06"><metadata
     id="metadata8"><rdf:RDF><cc:Work
         rdf:about=""><dc:format>image/svg+xml</dc:format><dc:type
           rdf:resource="http://purl.org/dc/dcmitype/StillImage" /><dc:title></dc:title></cc:Work></rdf:RDF></metadata><defs
     id="defs6"><clipPath
       clipPathUnits="userSpaceOnUse"
       id="clipPath18"><path
         d="M 0,464.661 H 832.17 V 0 H 0 Z"
         id="path16"
         inkscape:connector-curvature="0" /></clipPath></defs><sodipodi:namedview
     pagecolor="#ffffff"
     bordercolor="#666666"
     borderopacity="1"
     objecttolerance="10"
     gridtolerance="10"
     guidetolerance="10"
     inkscape:pageopacity="0"
     inkscape:pageshadow="2"
     inkscape:window-width="640"
     inkscape:window-height="480"
     id="namedview4"
     showgrid="false"
     inkscape:zoom="1.4142136"
     inkscape:cx="477.53196"
     inkscape:cy="309.48814"
     inkscape:window-x="2691"
     inkscape:window-y="1315"
     inkscape:window-maximized="0"
     inkscape:current-layer="g10" /><g
     id="g10"
     inkscape:groupmode="layer"
     inkscape:label="eagle-silhouette-4892371"
     transform="matrix(1.3333333,0,0,-1.3333333,0,619.548)"><g
       id="g12"><g
         id="g14"
         clip-path="url(#clipPath18)"><g
           id="g20"
           transform="translate(415.9771,142.3539)"><path
             d="m 0,0 c -0.539,0.859 -0.94,1.445 -1.289,2.062 -17.145,30.268 -35.266,59.959 -53.163,89.783 -0.797,1.328 -1.286,2.689 -1.498,4.239 -2.308,16.953 -4.643,33.902 -7.039,50.842 -0.463,3.274 -0.532,6.407 0.329,9.689 3.346,12.757 6.466,25.573 9.672,38.366 0.193,0.77 0.41,1.534 0.72,2.69 2.241,-1.712 3.906,-3.7 5.745,-5.485 1.835,-1.783 3.626,-3.612 5.437,-5.42 1.868,-1.865 3.737,-3.728 5.605,-5.593 1.868,-1.864 3.734,-3.731 5.601,-5.596 1.811,-1.808 3.621,-3.618 5.434,-5.425 1.863,-1.857 3.728,-3.712 5.739,-5.714 21.437,14.723 42.768,29.373 64.346,44.193 0.335,-0.969 0.613,-1.679 0.829,-2.408 4.798,-16.17 9.6,-32.338 14.353,-48.521 0.305,-1.04 0.398,-2.211 0.296,-3.293 C 59.952,142.07 58.726,129.737 57.524,117.402 56.841,110.399 56.121,103.398 55.531,96.387 55.377,94.57 54.838,93.007 53.925,91.458 42.667,72.385 31.438,53.293 20.207,34.204 14.001,23.66 7.805,13.112 1.601,2.568 1.129,1.767 0.617,0.988 0,0"
             style="fill:#000000;fill-opacity:1;fill-rule:nonzero;stroke:none"
             id="path22"
             inkscape:connector-curvature="0" /></g><g
           id="g24"
           transform="translate(404.3775,414.623)"><path
             d="m 0,0 c -1.249,2.773 -2.449,4.948 -3.215,7.267 -0.917,2.774 -2.51,3.983 -5.495,4.053 -3.719,0.087 -7.425,0.677 -11.399,1.076 0.307,-0.668 0.45,-1.109 0.693,-1.484 1.039,-1.605 2.258,-3.113 3.127,-4.802 1.317,-2.562 3.25,-3.813 6.124,-4.16 C -6.948,1.562 -3.783,0.747 0,0 m 56.171,-60.333 c -20.867,-14.333 -41.746,-28.675 -62.733,-43.091 -0.532,0.441 -1.041,0.798 -1.474,1.23 -10.073,10.058 -20.12,20.143 -30.231,30.163 -1.132,1.123 -1.297,2.093 -0.887,3.592 2.294,8.404 4.437,16.85 6.707,25.26 0.455,1.684 0.444,3.239 -0.014,4.916 -2.9,10.642 -5.733,21.303 -8.586,31.957 -0.123,0.459 -0.225,0.924 -0.401,1.645 6.636,4.75 13.307,9.526 20.077,14.372 -0.912,4.03 -1.803,7.971 -2.778,12.279 6.589,-0.508 12.864,-0.977 19.134,-1.5 0.521,-0.043 1.02,-0.436 1.515,-0.694 7.379,-3.833 14.747,-7.686 22.14,-11.49 1.181,-0.608 2.068,-1.403 2.77,-2.533 9.525,-15.355 19.079,-30.692 28.613,-46.043 0.375,-0.604 0.701,-1.265 0.908,-1.942 1.681,-5.504 3.332,-11.017 4.978,-16.532 0.133,-0.448 0.157,-0.929 0.262,-1.589"
             style="fill:#000000;fill-opacity:1;fill-rule:nonzero;stroke:none"
             id="path26"
             inkscape:connector-curvature="0" /></g><g
           id="g28"
           transform="translate(562.003,410.7929)"><path
             d="m 0,0 c 0.276,-0.966 0.483,-1.561 0.615,-2.17 2.971,-13.755 5.91,-27.517 8.932,-41.261 0.332,-1.508 -0.032,-2.562 -0.937,-3.718 -13.065,-16.693 -26.099,-33.409 -39.133,-50.125 -15.887,-20.375 -31.767,-40.756 -47.651,-61.134 -2.31,-2.965 -4.621,-5.93 -6.941,-8.889 -0.38,-0.485 -0.805,-0.933 -1.49,-1.721 0,1.217 -0.068,2.043 0.01,2.856 1.568,16.321 3.198,32.635 4.692,48.962 0.286,3.126 1.269,5.728 3.133,8.297 22.728,31.339 45.359,62.749 68.015,94.141 2.996,4.151 5.99,8.303 8.991,12.45 C -1.26,-1.617 -0.724,-0.946 0,0"
             style="fill:#000000;fill-opacity:1;fill-rule:nonzero;stroke:none"
             id="path30"
             inkscape:connector-curvature="0" /></g><g
           id="g32"
           transform="translate(355.877,242.205)"><path
             d="m 0,0 c -0.612,0.705 -0.988,1.098 -1.321,1.526 -30.839,39.633 -61.67,79.272 -92.531,118.888 -0.902,1.158 -1.269,2.161 -0.921,3.677 3.15,13.71 6.204,27.443 9.294,41.166 0.12,0.528 0.326,1.036 0.61,1.925 0.675,-0.942 1.185,-1.622 1.661,-2.326 12.043,-17.821 24.083,-35.645 36.123,-53.467 C -34.149,92.241 -21.216,73.09 -8.268,53.951 -7.452,52.745 -6.814,51.54 -6.611,50.044 -4.385,33.646 -2.108,17.255 0.148,0.862 0.168,0.714 0.099,0.554 0,0"
             style="fill:#000000;fill-opacity:1;fill-rule:nonzero;stroke:none"
             id="path34"
             inkscape:connector-curvature="0" /></g><g
           id="g36"
           transform="translate(557.6768,410.623)"><path
             d="m 0,0 c -25.899,-35.862 -51.798,-71.724 -78.042,-108.064 -7.136,23.745 -13.936,47.062 -21.024,70.555 33.067,12.703 65.907,25.319 98.746,37.935 C -0.213,0.284 -0.106,0.142 0,0"
             style="fill:#000000;fill-opacity:1;fill-rule:nonzero;stroke:none"
             id="path38"
             inkscape:connector-curvature="0" /></g><g
           id="g40"
           transform="translate(275.5289,409.8857)"><path
             d="M 0,0 C 31.039,-12.251 62.078,-24.502 93.191,-36.784 86.903,-61.49 80.668,-85.985 74.287,-111.052 49.193,-73.896 24.418,-37.212 -0.356,-0.529 -0.237,-0.353 -0.119,-0.176 0,0"
             style="fill:#000000;fill-opacity:1;fill-rule:nonzero;stroke:none"
             id="path42"
             inkscape:connector-curvature="0" /></g><g
           id="g44"
           transform="translate(607.2012,382.853)"><path
             d="m 0,0 c 0.303,0.388 0.34,0.468 0.402,0.512 3.908,2.763 3.91,2.768 8.2,0.502 44.458,-23.492 88.915,-46.985 133.371,-70.48 1.053,-0.556 2.096,-1.131 3.181,-1.717 -1.336,-1.31 -39.702,-20.48 -45.259,-22.633 C 66.678,-62.62 33.365,-31.334 0,0"
             style="fill:#000000;fill-opacity:1;fill-rule:nonzero;stroke:none"
             id="path46"
             inkscape:connector-curvature="0" /></g><g
           id="g48"
           transform="translate(125.4918,287.872)"><path
             d="m 0,0 c -15.044,7.413 -29.915,14.741 -45.279,22.312 47.24,25.039 93.979,49.813 140.8,74.63 1.472,-0.882 2.888,-1.731 4.616,-2.766 C 66.692,62.722 33.452,31.461 0,0"
             style="fill:#000000;fill-opacity:1;fill-rule:nonzero;stroke:none"
             id="path50"
             inkscape:connector-curvature="0" /></g><g
           id="g52"
           transform="translate(415.7227,4e-4)"><path
             d="m 0,0 c -2.876,3.361 -5.577,6.511 -8.271,9.666 -3.998,4.685 -7.954,9.404 -12.008,14.039 -1.108,1.266 -1.367,2.471 -1.092,4.128 3.501,21.058 6.924,42.128 10.369,63.194 2.58,15.781 5.162,31.56 7.751,47.338 0.089,0.541 0.265,1.068 0.513,2.043 1.066,-1.698 1.93,-3.076 2.975,-4.741 1.176,1.936 2.221,3.657 3.541,5.829 0.263,-1.314 0.44,-2.077 0.567,-2.848 3.942,-23.983 7.881,-47.967 11.818,-71.953 2.098,-12.78 4.188,-25.562 6.292,-38.341 0.2,-1.219 0.187,-2.245 -0.742,-3.314 C 14.79,17.07 7.943,9.034 1.068,1.022 0.815,0.728 0.506,0.481 0,0"
             style="fill:#000000;fill-opacity:1;fill-rule:nonzero;stroke:none"
             id="path54"
             inkscape:connector-curvature="0" /></g><g
           id="g56"
           transform="translate(217.4849,386.9394)"><path
             d="m 0,0 c -0.75,-0.483 -1.243,-0.855 -1.782,-1.141 -29.098,-15.426 -58.2,-30.845 -87.302,-46.266 -16.599,-8.797 -33.208,-17.574 -49.779,-26.424 -1.492,-0.797 -2.642,-0.891 -4.189,-0.107 -8.558,4.333 -17.178,8.542 -25.775,12.8 -0.631,0.313 -1.237,0.675 -2.09,1.142 2.164,2.678 4.159,5.266 6.305,7.721 0.524,0.6 1.517,0.835 2.335,1.126 15.739,5.599 31.485,11.18 47.228,16.769 35.476,12.594 70.955,25.181 106.417,37.815 1.421,0.506 2.527,0.524 3.773,-0.382 C -3.386,1.981 -1.774,1.101 0,0"
             style="fill:#000000;fill-opacity:1;fill-rule:nonzero;stroke:none"
             id="path58"
             inkscape:connector-curvature="0" /></g><g
           id="g60"
           transform="translate(786.0333,327.9355)"><path
             d="m 0,0 c -0.896,-0.498 -1.561,-0.904 -2.255,-1.247 -8.454,-4.182 -16.932,-8.316 -25.35,-12.569 -1.411,-0.712 -2.448,-0.575 -3.762,0.122 C -64.92,4.08 -98.49,21.82 -132.059,39.564 c -11.942,6.313 -23.889,12.618 -35.833,18.93 -0.842,0.445 -1.672,0.915 -2.888,1.583 2.193,1.492 4.196,2.755 6.31,3.784 0.572,0.279 1.544,-0.077 2.267,-0.33 6.939,-2.43 13.865,-4.901 20.795,-7.359 C -97.193,40.483 -52.98,24.79 -8.756,9.129 -7.256,8.598 -6.112,7.8 -5.165,6.527 -3.554,4.36 -1.818,2.284 0,0"
             style="fill:#000000;fill-opacity:1;fill-rule:nonzero;stroke:none"
             id="path62"
             inkscape:connector-curvature="0" /></g><g
           id="g64"
           transform="translate(704.0098,287.3525)"><path
             d="m 0,0 c -12.191,-6.015 -23.997,-11.839 -36.067,-17.794 -23.824,35.704 -47.582,71.313 -71.477,107.125 2.558,1.564 4.917,3.005 7.537,4.607 C -66.767,62.715 -33.573,31.536 0,0"
             style="fill:#000000;fill-opacity:1;fill-rule:nonzero;stroke:none"
             id="path66"
             inkscape:connector-curvature="0" /></g><g
           id="g68"
           transform="translate(228.6363,380.2358)"><path
             d="m 0,0 c 2.517,-1.522 4.89,-2.957 7.56,-4.571 -23.842,-35.745 -47.588,-71.348 -71.469,-107.152 -11.92,5.885 -23.716,11.709 -35.417,17.485 -0.055,0.244 -0.082,0.321 -0.088,0.399 -0.006,0.075 -0.021,0.183 0.02,0.223 3.512,3.374 7.001,6.772 10.549,10.109 C -59.271,-55.698 -29.686,-27.899 0,0"
             style="fill:#000000;fill-opacity:1;fill-rule:nonzero;stroke:none"
             id="path70"
             inkscape:connector-curvature="0" /></g><g
           id="g72"
           transform="translate(239.0572,373.9531)"><path
             d="m 0,0 c 2.63,-1.582 5.009,-3.013 7.62,-4.583 -14.149,-40.079 -28.266,-80.065 -42.487,-120.35 -12.22,6.031 -24.164,11.926 -36.438,17.983 C -47.516,-71.27 -23.847,-35.769 0,0"
             style="fill:#000000;fill-opacity:1;fill-rule:nonzero;stroke:none"
             id="path74"
             inkscape:connector-curvature="0" /></g><g
           id="g76"
           transform="translate(664.9073,268.0493)"><path
             d="m 0,0 c -12.259,-6.047 -24.141,-11.908 -36.328,-17.92 -14.244,40.174 -28.408,80.121 -42.617,120.197 2.054,1.273 3.939,2.452 5.839,3.606 0.533,0.325 1.113,0.574 1.863,0.954 C -47.524,71.269 -23.857,35.776 0,0"
             style="fill:#000000;fill-opacity:1;fill-rule:nonzero;stroke:none"
             id="path78"
             inkscape:connector-curvature="0" /></g><g
           id="g80"
           transform="translate(9.2281,343.4072)"><path
             d="m 0,0 c 3.118,1.424 6.231,2.858 9.354,4.271 15.222,6.887 30.461,13.739 45.659,20.679 2.893,1.321 5.961,1.793 9.003,2.411 39.246,7.977 78.498,15.923 117.749,23.875 2.977,0.603 5.966,1.151 8.929,1.818 1.026,0.231 1.846,0.086 2.706,-0.48 1.307,-0.86 2.671,-1.632 4.37,-2.657 -1.167,-0.464 -1.871,-0.771 -2.593,-1.027 C 144.857,31.021 94.547,13.127 44.192,-4.639 40.925,-5.792 37.295,-5.886 33.863,-6.607 30.335,-7.348 26.935,-7.041 23.458,-6.157 16.176,-4.306 8.84,-2.669 1.528,-0.937 1.006,-0.813 0.5,-0.627 -0.014,-0.47 -0.009,-0.313 -0.005,-0.157 0,0"
             style="fill:#000000;fill-opacity:1;fill-rule:nonzero;stroke:none"
             id="path82"
             inkscape:connector-curvature="0" /></g><g
           id="g84"
           transform="translate(626.1407,394.312)"><path
             d="m 0,0 c 0.226,0.354 0.254,0.443 0.314,0.485 4.389,3.043 4.394,3.064 9.676,1.996 36.055,-7.29 72.108,-14.589 108.16,-21.885 6.584,-1.332 13.171,-2.651 19.749,-4.009 0.93,-0.191 1.86,-0.483 2.724,-0.872 18.305,-8.239 36.6,-16.498 54.894,-24.76 0.636,-0.288 1.241,-0.648 2.187,-1.146 -0.962,-0.299 -1.547,-0.52 -2.15,-0.662 -8.329,-1.96 -16.654,-3.94 -24.998,-5.83 -1.29,-0.292 -2.68,-0.244 -4.017,-0.194 -1.193,0.044 -2.372,0.389 -3.565,0.463 -7.734,0.476 -14.701,3.674 -21.839,6.199 C 103.895,-37.038 66.678,-23.792 29.454,-10.57 20.412,-7.358 11.37,-4.146 2.33,-0.927 1.593,-0.665 0.875,-0.35 0,0"
             style="fill:#000000;fill-opacity:1;fill-rule:nonzero;stroke:none"
             id="path86"
             inkscape:connector-curvature="0" /></g><g
           id="g88"
           transform="translate(196.401,399.1547)"><path
             d="m 0,0 c -3.748,-0.767 -7.495,-1.541 -11.244,-2.301 -39.021,-7.914 -78.042,-15.828 -117.067,-23.724 -1.166,-0.236 -2.371,-0.385 -3.559,-0.388 -14.157,-0.026 -28.314,-0.003 -42.471,-0.038 -1.422,-0.004 -2.613,0.311 -3.8,1.119 -5.354,3.646 -10.76,7.216 -16.142,10.82 -0.581,0.389 -1.13,0.828 -2.118,1.556 1.212,0.2 1.953,0.348 2.701,0.442 18.804,2.361 37.618,4.635 56.408,7.101 13.646,1.79 27.352,2.881 41.063,3.961 15.387,1.213 30.771,2.463 46.156,3.688 10.922,0.869 21.845,1.726 32.767,2.587 2.551,0.2 5.101,0.427 7.656,0.573 0.689,0.039 1.5,0.015 2.07,-0.307 C -5.016,3.641 -2.519,2.074 0.002,0.55 0.001,0.367 0,0.184 0,0"
             style="fill:#000000;fill-opacity:1;fill-rule:nonzero;stroke:none"
             id="path90"
             inkscape:connector-curvature="0" /></g><g
           id="g92"
           transform="translate(550.2188,331.1567)"><path
             d="m 0,0 c 3.181,-31.961 6.361,-63.922 9.568,-96.141 -14.675,-3.155 -29.155,-6.268 -44.036,-9.467 0.516,3.339 0.946,6.238 1.414,9.131 3.631,22.412 7.273,44.823 10.898,67.236 0.207,1.28 0.541,2.433 1.38,3.501 6.421,8.177 12.789,16.395 19.178,24.595 0.333,0.428 0.719,0.814 1.079,1.219 C -0.346,0.049 -0.173,0.024 0,0"
             style="fill:#000000;fill-opacity:1;fill-rule:nonzero;stroke:none"
             id="path94"
             inkscape:connector-curvature="0" /></g><g
           id="g96"
           transform="translate(832.17,386.7827)"><path
             d="m 0,0 c -0.778,-0.535 -1.552,-1.08 -2.338,-1.604 -5.19,-3.457 -10.391,-6.9 -15.57,-10.372 -1.024,-0.687 -2.054,-1.069 -3.334,-1.066 -14.235,0.04 -28.469,-0.06 -42.701,0.095 -2.994,0.032 -5.994,0.871 -8.964,1.471 -40.274,8.126 -80.542,16.276 -120.811,24.424 -0.702,0.142 -1.395,0.331 -2.37,0.565 0.526,0.478 0.86,0.884 1.283,1.146 1.971,1.221 3.928,2.474 5.972,3.563 0.789,0.42 1.812,0.666 2.697,0.599 10.125,-0.77 20.243,-1.621 30.365,-2.44 14.663,-1.186 29.327,-2.361 43.991,-3.548 10.678,-0.863 21.377,-1.536 32.029,-2.655 14.942,-1.571 29.853,-3.448 44.77,-5.247 10.874,-1.312 21.737,-2.708 32.604,-4.073 0.774,-0.097 1.544,-0.243 2.315,-0.366 z"
             style="fill:#000000;fill-opacity:1;fill-rule:nonzero;stroke:none"
             id="path98"
             inkscape:connector-curvature="0" /></g><g
           id="g100"
           transform="translate(174.6588,416.81)"><path
             d="m 0,0 c 1.706,0.915 2.891,1.551 4.078,2.186 6.268,3.358 12.544,6.701 18.797,10.087 1.106,0.599 2.115,0.794 3.399,0.469 21.759,-5.519 43.531,-10.981 65.299,-16.463 0.53,-0.133 1.04,-0.341 1.85,-0.611 C 90.006,-19.55 86.603,-34.706 83.117,-50.23 55.35,-33.45 27.889,-16.854 0,0"
             style="fill:#000000;fill-opacity:1;fill-rule:nonzero;stroke:none"
             id="path102"
             inkscape:connector-curvature="0" /></g><g
           id="g104"
           transform="translate(316.8175,224.5776)"><path
             d="m 0,0 c -14.745,3.149 -29.104,6.215 -43.696,9.331 3.132,32.127 6.244,64.058 9.4,96.424 0.706,-0.665 1.127,-0.971 1.434,-1.365 6.439,-8.259 12.881,-16.515 19.264,-24.815 0.599,-0.78 1.021,-1.819 1.181,-2.794 C -8.869,55.257 -5.371,33.724 -1.861,12.193 -1.308,8.802 -0.733,5.414 -0.183,2.022 -0.097,1.493 -0.083,0.951 0,0"
             style="fill:#000000;fill-opacity:1;fill-rule:nonzero;stroke:none"
             id="path106"
             inkscape:connector-curvature="0" /></g><g
           id="g108"
           transform="translate(574.8018,367.998)"><path
             d="m 0,0 c -3.26,15.143 -6.513,30.253 -9.823,45.631 0.9,0.276 1.693,0.556 2.505,0.761 20.448,5.161 40.923,10.215 61.323,15.558 3.703,0.969 6.627,0.659 9.866,-1.324 5.445,-3.334 11.153,-6.239 16.748,-9.331 0.693,-0.382 1.366,-0.798 2.061,-1.207 C 81.511,48.698 2.809,0.992 0,0"
             style="fill:#000000;fill-opacity:1;fill-rule:nonzero;stroke:none"
             id="path110"
             inkscape:connector-curvature="0" /></g><g
           id="g112"
           transform="translate(821.2725,428.8466)"><path
             d="m 0,0 c -0.71,-0.65 -1.065,-1.035 -1.478,-1.344 -8.117,-6.098 -16.227,-12.204 -24.381,-18.251 -0.865,-0.64 -1.953,-1.118 -3.007,-1.343 -11.722,-2.506 -23.453,-4.963 -35.194,-7.38 -1.228,-0.253 -2.539,-0.308 -3.793,-0.21 -15.379,1.202 -30.756,2.447 -46.133,3.69 -18.246,1.474 -36.491,2.955 -54.736,4.441 -0.706,0.057 -1.407,0.19 -2.443,0.335 0.615,0.522 0.969,0.909 1.397,1.173 3.064,1.884 6.122,3.781 9.233,5.584 0.796,0.461 1.763,0.78 2.677,0.859 17.281,1.492 34.564,2.964 51.851,4.39 19.029,1.569 38.061,3.129 57.097,4.616 15.46,1.206 30.93,2.299 46.395,3.434 C -1.833,0.043 -1.145,0 0,0"
             style="fill:#000000;fill-opacity:1;fill-rule:nonzero;stroke:none"
             id="path114"
             inkscape:connector-curvature="0" /></g><g
           id="g116"
           transform="translate(260.4713,359.1562)"><path
             d="m 0,0 c 2.308,-2.947 4.621,-5.888 6.921,-8.84 3.588,-4.604 7.123,-9.25 10.775,-13.802 1.033,-1.286 1.394,-2.547 1.228,-4.166 -1.077,-10.497 -2.091,-21.001 -3.117,-31.503 -1.035,-10.582 -2.063,-21.165 -3.09,-31.748 -1.019,-10.503 -2.03,-21.006 -3.055,-31.509 -0.085,-0.863 -0.254,-1.717 -0.436,-2.917 -8.442,1.806 -16.757,3.586 -25.407,5.438 5.187,39.718 10.425,79.28 15.633,118.847 0.183,0.066 0.365,0.133 0.548,0.2"
             style="fill:#000000;fill-opacity:1;fill-rule:nonzero;stroke:none"
             id="path118"
             inkscape:connector-curvature="0" /></g><g
           id="g120"
           transform="translate(591.5967,241.8212)"><path
             d="m 0,0 c -0.556,4.173 -1.065,7.962 -1.564,11.752 -2.369,17.991 -4.739,35.982 -7.101,53.975 -2.403,18.309 -4.796,36.62 -7.206,54.929 -0.122,0.928 -0.134,1.696 0.838,2.247 2.074,1.178 4.101,2.437 6.465,3.852 C 5.567,86.891 19.625,47.247 33.803,7.267 22.451,4.827 11.398,2.45 0,0"
             style="fill:#000000;fill-opacity:1;fill-rule:nonzero;stroke:none"
             id="path122"
             inkscape:connector-curvature="0" /></g><g
           id="g124"
           transform="translate(182.5372,407.706)"><path
             d="m 0,0 c -3.022,-0.267 -5.638,-0.517 -8.257,-0.725 -18.967,-1.504 -37.934,-2.991 -56.901,-4.5 -12.909,-1.026 -25.816,-2.087 -38.727,-3.097 -1.097,-0.086 -2.244,-0.043 -3.318,0.178 -11.741,2.42 -23.475,4.876 -35.201,7.366 -0.908,0.193 -1.863,0.555 -2.601,1.102 -8.479,6.281 -16.921,12.614 -25.369,18.937 -0.185,0.139 -0.32,0.342 -0.694,0.749 0.691,0.058 1.179,0.166 1.657,0.131 16.024,-1.187 32.047,-2.397 48.071,-3.581 13.952,-1.032 27.91,-1.981 41.857,-3.071 9.64,-0.753 19.267,-1.681 28.9,-2.532 10.192,-0.901 20.384,-1.805 30.577,-2.704 2.229,-0.196 4.465,-0.333 6.687,-0.593 0.848,-0.099 1.752,-0.317 2.48,-0.739 C -7.451,4.957 -4.114,2.905 -0.766,0.873 -0.582,0.761 -0.465,0.538 0,0"
             style="fill:#000000;fill-opacity:1;fill-rule:nonzero;stroke:none"
             id="path126"
             inkscape:connector-curvature="0" /></g><g
           id="g128"
           transform="translate(240.8946,240.7958)"><path
             d="m 0,0 c -11.236,2.428 -22.225,4.803 -33.515,7.243 14.11,39.928 28.127,79.594 42.231,119.503 2.388,-1.441 4.486,-2.725 6.603,-3.975 0.887,-0.523 0.757,-1.313 0.657,-2.11 -0.369,-2.935 -0.735,-5.87 -1.121,-8.803 C 12.809,96.324 10.76,80.791 8.708,65.258 6.383,47.665 4.052,30.073 1.728,12.479 1.33,9.468 0.965,6.452 0.564,3.44 0.419,2.352 0.21,1.271 0,0"
             style="fill:#000000;fill-opacity:1;fill-rule:nonzero;stroke:none"
             id="path130"
             inkscape:connector-curvature="0" /></g><g
           id="g132"
           transform="translate(563.0919,235.7397)"><path
             d="m 0,0 c -0.504,5.023 -0.967,9.624 -1.427,14.225 -1.383,13.839 -2.77,27.679 -4.145,41.519 -1.422,14.319 -2.847,28.636 -4.211,42.96 -0.074,0.782 0.185,1.785 0.659,2.401 5.805,7.538 11.677,15.022 17.541,22.515 0.225,0.287 0.538,0.506 1.132,1.052 C 14.792,84.71 19.982,45.143 25.201,5.365 16.725,3.561 8.541,1.818 0,0"
             style="fill:#000000;fill-opacity:1;fill-rule:nonzero;stroke:none"
             id="path134"
             inkscape:connector-curvature="0" /></g><g
           id="g136"
           transform="translate(367.0587,42.9594)"><path
             d="m 0,0 h -16.331 c -0.351,0.751 -0.744,1.519 -1.075,2.312 -2.527,6.045 -5.001,12.115 -7.591,18.133 -0.589,1.371 -0.592,2.427 0.112,3.793 12.64,24.506 25.217,49.044 37.808,73.575 4.744,9.243 9.49,18.486 14.241,27.726 0.351,0.683 0.754,1.338 1.353,2.395 1.561,-2.719 3.028,-5.072 4.253,-7.544 0.323,-0.654 0.022,-1.712 -0.202,-2.528 C 28.172,101.834 23.748,85.813 19.325,69.792 13.116,47.301 6.904,24.811 0.69,2.32 0.499,1.628 0.281,0.943 0,0"
             style="fill:#000000;fill-opacity:1;fill-rule:nonzero;stroke:none"
             id="path138"
             inkscape:connector-curvature="0" /></g><g
           id="g140"
           transform="translate(437.1788,171.5697)"><path
             d="m 0,0 c 0.57,-0.97 0.953,-1.554 1.271,-2.171 17.171,-33.414 34.321,-66.841 51.547,-100.227 1.012,-1.963 1.138,-3.548 0.233,-5.582 -2.532,-5.694 -4.833,-11.492 -7.231,-17.247 -0.336,-0.804 -0.707,-1.594 -1.081,-2.436 H 28.826 c -0.283,0.951 -0.588,1.919 -0.86,2.895 -10.211,36.645 -20.42,73.29 -30.628,109.936 -0.515,1.848 -1.057,3.688 -1.529,5.547 -0.152,0.594 -0.373,1.372 -0.126,1.832 C -3.014,-5.027 -1.57,-2.676 0,0"
             style="fill:#000000;fill-opacity:1;fill-rule:nonzero;stroke:none"
             id="path142"
             inkscape:connector-curvature="0" /></g><g
           id="g144"
           transform="translate(64.7384,463.9599)"><path
             d="m 0,0 c 43.276,-10.932 86.111,-21.753 129.482,-32.709 -1.136,-0.675 -1.784,-1.091 -2.459,-1.455 -6.336,-3.414 -12.689,-6.799 -19.008,-10.244 -1.17,-0.637 -2.305,-0.935 -3.649,-0.813 -12.187,1.107 -24.379,2.169 -36.569,3.241 -4.621,0.407 -9.241,0.839 -13.866,1.192 -1.627,0.124 -3.097,0.515 -4.535,1.335 -11.323,6.46 -22.679,12.862 -34.01,19.309 -0.744,0.423 -1.516,0.952 -2.019,1.624 C 9.056,-12.755 4.803,-6.946 0.539,-1.146 0.406,-0.965 0.341,-0.734 0,0"
             style="fill:#000000;fill-opacity:1;fill-rule:nonzero;stroke:none"
             id="path146"
             inkscape:connector-curvature="0" /></g><g
           id="g148"
           transform="translate(767.794,464.6611)"><path
             d="m 0,0 c -0.386,-0.626 -0.668,-1.166 -1.024,-1.651 -3.981,-5.409 -7.958,-10.82 -11.981,-16.198 -0.51,-0.681 -1.19,-1.315 -1.927,-1.735 -11.87,-6.778 -23.757,-13.526 -35.66,-20.247 -0.668,-0.377 -1.488,-0.596 -2.258,-0.663 -16.884,-1.46 -33.774,-2.874 -50.658,-4.344 -1.829,-0.159 -3.39,0.192 -5.003,1.11 -5.904,3.361 -11.885,6.587 -17.833,9.872 -0.685,0.378 -1.347,0.798 -2.097,1.245 C -126.765,-31.643 -3.85,-0.458 0,0"
             style="fill:#000000;fill-opacity:1;fill-rule:nonzero;stroke:none"
             id="path150"
             inkscape:connector-curvature="0" /></g><g
           id="g152"
           transform="translate(453.6505,23.7768)"><path
             d="m 0,0 c -4.064,1.163 -7.89,2.257 -11.865,3.395 -0.509,3.023 -1.023,6.002 -1.512,8.986 -3.777,23.028 -7.548,46.057 -11.325,69.085 -2.135,13.013 -4.273,26.025 -6.434,39.033 -0.219,1.323 -0.058,2.456 0.673,3.636 2.021,3.26 3.912,6.6 5.87,9.899 0.267,0.448 0.622,0.843 1.141,1.533 0.345,-1.036 0.619,-1.757 0.826,-2.498 C -12.167,95.504 -1.709,57.938 8.715,20.361 8.954,19.5 9.123,18.369 8.769,17.632 5.966,11.804 3.026,6.041 0,0"
             style="fill:#000000;fill-opacity:1;fill-rule:nonzero;stroke:none"
             id="path154"
             inkscape:connector-curvature="0" /></g><g
           id="g156"
           transform="translate(379.0558,22.7553)"><path
             d="m 0,0 c -0.38,0.682 -0.666,1.152 -0.911,1.643 -2.399,4.787 -4.745,9.601 -7.213,14.353 -0.716,1.379 -0.808,2.594 -0.392,4.094 9.091,32.806 18.131,65.625 27.182,98.442 1.338,4.853 2.675,9.707 4.021,14.558 0.207,0.747 0.459,1.481 0.793,2.549 0.531,-0.748 0.922,-1.216 1.223,-1.735 1.805,-3.111 3.528,-6.273 5.411,-9.336 0.815,-1.327 0.994,-2.602 0.746,-4.094 C 29.191,110.462 27.57,100.441 25.929,90.425 23.28,74.258 20.624,58.091 17.977,41.923 16.002,29.855 13.997,17.793 12.111,5.712 11.819,3.836 11.054,2.978 9.225,2.562 6.195,1.872 3.228,0.912 0,0"
             style="fill:#000000;fill-opacity:1;fill-rule:nonzero;stroke:none"
             id="path158"
             inkscape:connector-curvature="0" /></g><g
           id="g160"
           transform="translate(326.5455,67.1967)"><path
             d="m 0,0 c -0.43,2.361 -0.812,4.476 -1.201,6.588 -0.724,3.929 -1.419,7.863 -2.197,11.782 -0.283,1.425 -0.031,2.57 0.801,3.806 20.806,30.89 41.572,61.809 62.347,92.72 0.395,0.587 0.824,1.151 1.443,2.009 1.874,-3.151 3.695,-6.044 5.295,-9.053 0.302,-0.566 -0.108,-1.682 -0.472,-2.403 C 62.668,98.814 59.262,92.21 55.866,85.6 41.735,58.092 27.607,30.583 13.462,3.083 11.574,-0.589 12.479,0.059 8.451,0.007 5.672,-0.029 2.892,0 0,0"
             style="fill:#000000;fill-opacity:1;fill-rule:nonzero;stroke:none"
             id="path162"
             inkscape:connector-curvature="0" /></g><g
           id="g164"
           transform="translate(445.1007,185.0668)"><path
             d="m 0,0 c 2.457,-3.652 4.646,-6.893 6.819,-10.142 18.861,-28.182 37.708,-56.375 56.61,-84.531 0.925,-1.378 1.198,-2.599 0.878,-4.214 -1.075,-5.411 -1.997,-10.851 -2.991,-16.278 -0.085,-0.461 -0.267,-0.903 -0.475,-1.59 -3.66,0 -7.321,-0.006 -10.982,0.003 -1.145,0.003 -1.34,1.009 -1.725,1.753 -2.826,5.471 -5.628,10.954 -8.44,16.432 -14.824,28.884 -29.634,57.777 -44.509,86.634 -0.802,1.556 -0.813,2.688 0.147,4.133 1.581,2.38 2.95,4.902 4.668,7.8"
             style="fill:#000000;fill-opacity:1;fill-rule:nonzero;stroke:none"
             id="path166"
             inkscape:connector-curvature="0" /></g><g
           id="g168"
           transform="translate(512.0987,91.1674)"><path
             d="m 0,0 c -0.579,0.815 -1.094,1.504 -1.572,2.218 -19,28.376 -37.997,56.755 -56.994,85.133 -1.825,2.725 -3.597,5.487 -5.495,8.158 -0.799,1.124 -0.927,2.009 -0.162,3.227 1.869,2.973 3.594,6.036 5.508,9.285 0.555,-0.52 1.036,-0.883 1.41,-1.334 C -39.752,85.497 -22.21,64.3 -4.665,43.104 -0.942,38.606 2.755,34.087 6.527,29.631 7.523,28.455 7.951,27.287 7.817,25.722 7.225,18.789 6.712,11.85 6.24,4.907 6.143,3.464 5.618,2.558 4.247,2.016 2.85,1.464 1.523,0.732 0,0"
             style="fill:#000000;fill-opacity:1;fill-rule:nonzero;stroke:none"
             id="path170"
             inkscape:connector-curvature="0" /></g><g
           id="g172"
           transform="translate(379.1788,198.2778)"><path
             d="m 0,0 c 1.443,-2.388 2.773,-4.548 4.059,-6.734 0.805,-1.37 2.159,-2.792 2.134,-4.171 -0.025,-1.37 -1.413,-2.751 -2.296,-4.067 -19.691,-29.325 -39.395,-58.641 -59.098,-87.959 -1.111,-1.652 -2.232,-3.298 -3.521,-5.201 -1.817,0.91 -3.62,1.708 -5.294,2.721 -0.458,0.278 -0.692,1.186 -0.747,1.829 -0.503,5.892 -0.945,11.789 -1.403,17.686 -0.025,0.318 0.016,0.653 -0.066,0.955 -0.868,3.186 0.478,5.496 2.495,7.924 20.728,24.966 41.349,50.02 62.004,75.046 C -1.24,-1.373 -0.71,-0.805 0,0"
             style="fill:#000000;fill-opacity:1;fill-rule:nonzero;stroke:none"
             id="path174"
             inkscape:connector-curvature="0" /></g><g
           id="g176"
           transform="translate(525.8663,121.4946)"><path
             d="m 0,0 c -2.406,-0.881 -3.695,0.164 -5.054,1.81 -21.274,25.772 -42.609,51.496 -63.928,77.232 -0.457,0.551 -0.895,1.119 -1.549,1.94 1.401,2.385 2.835,4.825 4.358,7.42 0.61,-0.438 1.077,-0.709 1.469,-1.065 19.822,-18.013 39.633,-36.039 59.467,-54.038 1.063,-0.965 1.664,-1.969 1.828,-3.445 C -2.354,20.32 -1.2,10.798 -0.083,1.271 -0.037,0.88 -0.03,0.483 0,0"
             style="fill:#000000;fill-opacity:1;fill-rule:nonzero;stroke:none"
             id="path178"
             inkscape:connector-curvature="0" /></g><g
           id="g180"
           transform="translate(306.8814,120.3559)"><path
             d="m 0,0 c 0,0.856 -0.07,1.564 0.01,2.254 1.085,9.293 2.219,18.581 3.261,27.879 0.157,1.4 0.782,2.331 1.776,3.226 13.607,12.263 27.194,24.548 40.785,36.828 5.698,5.147 11.394,10.297 17.093,15.443 0.946,0.854 1.903,1.695 3.092,2.751 1.493,-2.458 2.89,-4.756 4.376,-7.202 C 69.852,80.478 69.342,79.778 68.792,79.112 47.474,53.252 26.132,27.411 4.874,1.503 3.496,-0.177 2.042,-0.278 0,0"
             style="fill:#000000;fill-opacity:1;fill-rule:nonzero;stroke:none"
             id="path182"
             inkscape:connector-curvature="0" /></g><g
           id="g184"
           transform="translate(523.96,297.4755)"><path
             d="m 0,0 c -3.864,-23.85 -7.729,-47.699 -11.656,-71.935 -12.233,3.645 -24.197,7.21 -36.596,10.905 15.999,20.615 31.85,40.899 47.664,61.211 C -0.392,0.121 -0.196,0.06 0,0"
             style="fill:#000000;fill-opacity:1;fill-rule:nonzero;stroke:none"
             id="path186"
             inkscape:connector-curvature="0" /></g><g
           id="g188"
           transform="translate(355.9459,236.4545)"><path
             d="m 0,0 c -12.042,-4.004 -23.681,-7.874 -35.591,-11.834 -3.933,24.106 -7.813,47.888 -11.685,71.623 0.206,0.101 0.265,0.149 0.327,0.155 0.074,0.007 0.178,0.005 0.222,-0.04 0.277,-0.283 0.563,-0.563 0.806,-0.875 C -30.713,39.485 -15.508,19.937 0,0"
             style="fill:#000000;fill-opacity:1;fill-rule:nonzero;stroke:none"
             id="path190"
             inkscape:connector-curvature="0" /></g><g
           id="g192"
           transform="translate(332.1187,430.7299)"><path
             d="m 0,0 c 1.125,0.964 2.341,1.842 3.358,2.91 2.388,2.507 5.251,3.285 8.691,3.689 10.486,1.229 20.889,0.32 31.318,-0.393 0.312,-0.021 0.62,-0.115 1.215,-0.23 0.832,-3.549 1.68,-7.164 2.575,-10.981 -6.012,-4.276 -11.981,-8.521 -18.072,-12.853 -0.542,0.382 -1.074,0.7 -1.541,1.095 -5.489,4.638 -10.987,9.267 -16.434,13.955 -1.081,0.931 -2.177,1.459 -3.624,1.552 -2.441,0.155 -4.87,0.514 -7.304,0.787 C 0.122,-0.312 0.061,-0.156 0,0"
             style="fill:#000000;fill-opacity:1;fill-rule:nonzero;stroke:none"
             id="path194"
             inkscape:connector-curvature="0" /></g><g
           id="g196"
           transform="translate(391.1187,422.8549)"><path
             d="M 0,0 C 1.389,-0.101 2.485,-0.233 3.583,-0.249 5.576,-0.277 6.987,-0.944 7.073,-3.187 3.803,-3.585 1.198,-2.556 0,0"
             style="fill:#000000;fill-opacity:1;fill-rule:nonzero;stroke:none"
             id="path198"
             inkscape:connector-curvature="0" /></g></g></g></g></svg>